HIERARCHY
ROOT root
{
	OFFSET	0	13.1	24.9
	CHANNELS 6  Xposition Yposition Zposition Xrotation Yrotation Zrotation
	JOINT spine_1
	{
		OFFSET	0	9.99999	0
		CHANNELS 3  Xrotation Yrotation Zrotation
		JOINT spine_2
		{
			OFFSET	0	112	-10
			CHANNELS 3  Xrotation Yrotation Zrotation
			JOINT spine_3
			{
				OFFSET	0	206.5	19.3
				CHANNELS 3  Xrotation Yrotation Zrotation
				JOINT spine_4
				{
					OFFSET	0	110.4	14.6
					CHANNELS 3  Xrotation Yrotation Zrotation
					JOINT neck_1
					{
						OFFSET	0	71.8	-50.3
						CHANNELS 3  Xrotation Yrotation Zrotation
						JOINT neck_2
						{
							OFFSET	0	86.2	-25.8
							CHANNELS 3  Xrotation Yrotation Zrotation
							JOINT head_ee
							{
								OFFSET	0	179.8	-8.7
								CHANNELS 3  Xrotation Yrotation Zrotation
								End Site
								{
									OFFSET	1	0	0
								}
							}
						}
					}
					JOINT left_clavicle
					{
						OFFSET	-43.2	22.4	-70.8
						CHANNELS 3  Xrotation Yrotation Zrotation
						JOINT left_shoulder
						{
							OFFSET	-93.9	-5.79999	48.7
							CHANNELS 3  Xrotation Yrotation Zrotation
							JOINT left_elbow
							{
								OFFSET	-291.4	-30.8	15.2
								CHANNELS 3  Xrotation Yrotation Zrotation
								JOINT left_lowarm_twist
								{
									OFFSET	-110.7	-3.89999	13.6
									CHANNELS 3  Xrotation Yrotation Zrotation
									JOINT left_hand
									{
										OFFSET	-110.7	-3.89999	13.6
										CHANNELS 3  Xrotation Yrotation Zrotation
										JOINT left_ee
										{
											OFFSET	-80.8	-5.10001	12.1
											CHANNELS 3  Xrotation Yrotation Zrotation
											End Site
											{
												OFFSET	1	0	0
											}
										}
									}
								}
							}
						}
					}
					JOINT right_clavicle
					{
						OFFSET	43.2	22.4	-70.8
						CHANNELS 3  Xrotation Yrotation Zrotation
						JOINT right_shoulder
						{
							OFFSET	93.9	-5.79999	48.7
							CHANNELS 3  Xrotation Yrotation Zrotation
							JOINT right_elbow
							{
								OFFSET	291.4	-30.8	15.2
								CHANNELS 3  Xrotation Yrotation Zrotation
								JOINT right_lowarm_twist
								{
									OFFSET	110.7	-3.89999	13.6
									CHANNELS 3  Xrotation Yrotation Zrotation
									JOINT right_hand
									{
										OFFSET	110.7	-3.89999	13.6
										CHANNELS 3  Xrotation Yrotation Zrotation
										JOINT right_ee
										{
											OFFSET	80.8	-5.10001	12.1
											CHANNELS 3  Xrotation Yrotation Zrotation
											End Site
											{
												OFFSET	1	0	0
											}
										}
									}
								}
							}
						}
					}
				}
			}
		}
	}
	JOINT left_hip
	{
		OFFSET	-82.8	-127.5	0.300001
		CHANNELS 3  Xrotation Yrotation Zrotation
		JOINT left_knee
		{
			OFFSET	-28.2	-396.7	2.2
			CHANNELS 3  Xrotation Yrotation Zrotation
			JOINT left_ankle
			{
				OFFSET	-11.7	-411.3	35.4
				CHANNELS 3  Xrotation Yrotation Zrotation
				JOINT left_toes
				{
					OFFSET	0	-60	-88.6
					CHANNELS 3  Xrotation Yrotation Zrotation
					JOINT left_foot_ee
					{
						OFFSET	-22.5	-16.5	-42.2
						CHANNELS 3  Xrotation Yrotation Zrotation
						End Site
						{
							OFFSET	1	0	0
						}
					}
				}
			}
		}
	}
	JOINT right_hip
	{
		OFFSET	82.8	-127.5	0.300001
		CHANNELS 3  Xrotation Yrotation Zrotation
		JOINT right_knee
		{
			OFFSET	28.2	-396.7	2.2
			CHANNELS 3  Xrotation Yrotation Zrotation
			JOINT right_ankle
			{
				OFFSET	11.7	-411.3	35.4
				CHANNELS 3  Xrotation Yrotation Zrotation
				JOINT right_toes
				{
					OFFSET	0	-60	-88.6
					CHANNELS 3  Xrotation Yrotation Zrotation
					JOINT right_foot_ee
					{
						OFFSET	22.5	-16.5	-42.2
						CHANNELS 3  Xrotation Yrotation Zrotation
						End Site
						{
							OFFSET	1	0	0
						}
					}
				}
			}
		}
	}
}
MOTION
Frames: 13
Frame Time: 0.02
3061.71 625.486 -583.535 -159.216 -53.5101 -167.814 5.56417 0.0930885 0.681136 5.56443 0.0495584 0.685678 5.56476 -0.0291956 0.686847 5.56411 0.0796428 0.682838 -16.7316 2.33909 -1.10346 -16.756 5.11274 -0.191088 -0.0 0.0 -0.0 4.31592 11.1946 8.66643 -63.2724 -79.1097 -3.88145 0.431277 -12.0597 0.0455565 25.8254 0.176405 -3.26646 -6.39387 -24.7406 -62.1712 -0.0 0.0 -0.0 11.7345 20.5259 -23.2875 -36.4729 13.9876 -69.5058 0.367741 10.3245 -0.0332229 14.3562 -0.280665 1.80761 3.20611 -17.035 -27.7124 0.0 0.0 0.0 6.59483 15.7533 7.45173 -23.2847 0.242193 3.54048 -1.97448 -6.72121 0.300789 -8.10426 0.0 0.0 -0.0 0.0 -0.0 52.2875 -11.7768 4.78276 -21.7675 -0.270451 -3.30938 -4.29404 20.3983 -0.724932 -7.52826 0.0 0.0 0.0 0.0 0.0 
3070.56 630.731 -565.333 -159.964 -53.7038 -168.742 5.41268 0.287418 1.09109 5.41331 0.21741 1.10717 5.41688 0.0864661 1.12499 5.41521 0.263042 1.09722 -18.6335 2.40257 0.743429 -18.6543 4.23009 1.6375 -0.0 0.0 -0.0 4.16939 8.73096 8.36062 -62.7201 -78.0135 -2.2394 0.354885 -9.97089 0.0309577 40.2529 -0.362483 -5.02498 -5.36937 -26.1051 -51.4199 -0.0 0.0 -0.0 12.3856 23.2449 -24.552 -32.7711 10.4704 -72.8173 0.275442 7.76996 -0.0187052 17.5225 -0.281115 2.21199 3.47637 -4.95806 -25.8467 0.0 0.0 0.0 8.87138 16.4734 5.77544 -28.9485 0.082904 4.39474 -1.17128 -2.78284 0.175236 -4.35995 0.0 0.0 -0.0 0.0 -0.0 49.8881 -9.63878 3.58194 -19.8695 -0.297169 -3.0194 -1.94695 17.9852 -0.319717 -2.94603 0.0 0.0 0.0 0.0 0.0 
3089.4 636.904 -552.105 -159.962 -53.6199 -167.873 5.49391 0.116734 0.99885 5.49446 0.0529409 1.00425 5.49484 -0.0635026 1.00364 5.49345 0.0957926 1.00108 -19.235 1.50744 -1.33238 -19.2478 3.59885 -0.631566 -0.0 0.0 -0.0 4.50048 9.75934 8.96457 -62.7228 -75.7613 0.631836 0.394219 -11.0501 0.0381331 47.4321 -0.79117 -5.83673 -4.28067 -27.4067 -42.113 -0.0 0.0 -0.0 12.3389 21.7035 -24.5818 -32.679 11.4343 -71.9143 0.203442 5.75493 -0.0102257 17.3735 -0.281596 2.19296 3.63525 0.753215 -24.8029 0.0 0.0 0.0 11.0676 12.9319 4.35994 -32.9437 -0.079894 4.98611 0.669122 1.96773 -0.0983796 -1.43472 0.0 0.0 -0.0 0.0 -0.0 48.3673 -9.47019 3.10565 -20.3648 -0.291124 -3.09515 1.06063 20.2155 0.176304 -5.84893 0.0 0.0 0.0 0.0 0.0 
3112.9 634.42 -531.404 -160.483 -53.4588 -168.726 5.66932 0.0962023 1.04148 5.66992 0.0297388 1.04549 5.66984 -0.0881377 1.0422 5.66834 0.0775547 1.04304 -20.4672 3.62873 -2.15282 -20.553 8.07359 -0.449746 -0.0 0.0 -0.0 4.18561 10.8609 8.43647 -54.0323 -73.471 12.2781 0.494967 -13.7769 0.0597967 54.9627 -1.34655 -6.62432 -3.5063 -27.4955 -35.9906 -0.0 0.0 -0.0 11.7801 22.344 -23.2446 -29.1934 10.6047 -72.1542 0.197363 5.58409 -0.00962522 18.4627 -0.276947 2.332 4.0446 5.7554 -25.6867 0.0 0.0 0.0 10.9519 9.16139 4.64006 -35.2003 -0.189977 5.31477 2.2176 5.89124 -0.323027 1.63013 -0.0 -0.0 -0.0 0.0 -0.0 46.9587 -8.94633 2.57239 -23.0416 -0.247131 -3.50351 9.00288 15.0602 1.39487 -9.01274 0.0 0.0 0.0 0.0 0.0 
3127.36 636.562 -509.585 -161.865 -52.9234 -170.037 5.74208 0.115073 1.30964 5.74303 0.0315117 1.3143 5.74275 -0.114976 1.30965 5.74037 0.0932827 1.31137 -21.4169 4.34063 -2.45153 -21.5492 9.55851 -0.343694 -0.0 0.0 -0.0 3.3029 9.48802 6.86296 -52.8406 -73.3474 17.2489 0.356366 -10.0117 0.0312146 61.3584 -1.89635 -7.23181 -2.47224 -18.1041 -24.8637 -0.0 0.0 -0.0 12.3819 21.956 -24.6597 -27.6462 10.3615 -71.6824 0.194668 5.50831 -0.00936478 19.5808 -0.269426 2.47461 3.62829 7.55239 -21.8011 0.0 0.0 0.0 15.7863 8.35399 2.0098 -45.0495 -0.818854 6.69021 8.05046 10.6605 -1.15303 5.88754 -0.0 -0.0 -0.0 0.0 -0.0 43.5372 -10.1179 1.39974 -20.3782 -0.290951 -3.0972 12.5018 14.8863 1.90732 -11.6476 0.0 0.0 0.0 0.0 0.0 
3169.88 642.641 -481.169 -164.295 -50.8361 -172.88 6.31786 0.102574 1.28894 6.31878 0.0203546 1.29285 6.31813 -0.110745 1.28826 6.31582 0.0940847 1.28958 -21.8696 6.6897 -1.76278 -22.1812 13.7422 1.42224 -0.0 0.0 -0.0 3.18454 14.0909 6.84338 -59.9929 -71.1403 17.0945 0.311879 -8.78271 0.0239505 70.1305 -2.75392 -7.9586 -2.56832 0.876042 -16.9972 -0.0 0.0 -0.0 12.6315 20.8678 -25.3252 -29.3622 14.3883 -70.156 0.205566 5.81459 -0.0104397 22.833 -0.231754 2.88826 4.38577 13.3453 -24.5187 0.0 0.0 0.0 19.4372 5.09354 2.80224 -56.2981 -1.81379 8.10513 15.5297 16.7539 -2.19038 8.69057 -0.0 -0.0 -0.0 0.0 -0.0 38.2714 -8.94673 0.79292 -19.2493 -0.303816 -2.92446 19.0257 16.574 2.85036 -8.04192 0.0 0.0 0.0 0.0 0.0 
3210.65 643.813 -461.035 -165.951 -49.5941 -174.553 6.64067 0.130351 1.03291 6.64126 0.0643637 1.03911 6.64165 -0.0353648 1.0405 6.64016 0.129398 1.03303 -21.9818 6.25621 -1.37432 -22.2518 12.7199 1.58993 -0.0 0.0 -0.0 2.70551 18.1856 6.24069 -69.6167 -68.646 15.2142 0.464775 -12.9658 0.0528143 74.9825 -3.27311 -8.30202 -2.10046 7.1972 -10.722 -0.0 0.0 -0.0 12.7956 22.0081 -25.6115 -34.1337 15.0502 -68.8242 0.394158 11.0485 -0.0381214 23.8455 -0.215239 3.01654 4.08277 14.6075 -21.6673 0.0 0.0 0.0 23.6427 6.8664 1.67773 -68.5721 -3.19314 9.39792 25.8404 17.6284 -3.492 12.6335 -0.0 -0.0 -0.0 0.0 -0.0 33.6216 -7.51635 0.993577 -19.5493 -0.300729 -2.97039 24.9488 16.4335 3.61289 -5.85551 0.0 0.0 0.0 0.0 0.0 
3236.95 642.901 -438.498 -165.421 -50.1 -173.866 6.89896 0.329304 0.931914 6.8994 0.26934 0.950978 6.90321 0.181572 0.971561 6.90205 0.332727 0.930698 -20.2362 5.93568 -0.0217557 -20.4299 11.455 2.50433 -0.0 0.0 -0.0 1.92714 20.1209 5.16968 -71.109 -69.8835 15.3644 0.432167 -12.0839 0.0457426 75.7786 -3.36099 -8.35413 -2.53315 11.505 -11.409 -0.0 0.0 -0.0 12.4968 21.0209 -25.0018 -32.8031 13.2134 -69.222 0.430919 12.05 -0.0454816 25.476 -0.183887 3.22245 3.83014 19.657 -17.2539 0.0 0.0 0.0 22.9556 7.45535 0.515881 -69.9867 -3.36918 9.52733 27.0534 16.9929 -3.62593 14.7715 -0.0 -0.0 -0.0 0.0 -0.0 31.8132 -5.51484 0.609532 -21.8608 -0.26889 -3.32362 32.1935 12.6349 4.34159 -3.18355 0.0 0.0 0.0 0.0 0.0 
3248.13 644.905 -423.275 -163.807 -51.1714 -172.186 6.98615 0.340479 0.931613 6.98659 0.280511 0.951388 6.99058 0.194145 0.972692 6.98942 0.34532 0.929829 -19.7685 6.61567 0.617135 -19.9869 12.435 3.33672 -0.0 0.0 -0.0 2.79735 21.1027 6.48252 -75.3204 -66.9443 12.4156 0.434238 -12.14 0.0461771 72.8457 -3.04087 -8.15618 -2.45758 11.2953 -11.0261 -0.0 0.0 -0.0 12.4223 20.5488 -24.866 -30.7402 12.036 -69.9193 0.433997 12.1335 -0.0461264 28.9371 -0.097982 3.65616 4.31601 23.3458 -18.5563 0.0 0.0 0.0 22.8417 9.10916 -1.24196 -67.5297 -3.06551 9.29983 31.935 16.9207 -4.16741 14.1383 -0.0 -0.0 -0.0 0.0 -0.0 31.0826 -2.658 -0.197075 -20.7508 -0.285958 -3.15415 33.6314 9.75955 4.42322 -8.16723 0.0 0.0 0.0 0.0 0.0 
3253.41 644.648 -413.944 -162.219 -51.1977 -170.228 7.08059 0.315194 0.92339 7.08103 0.2558 0.941573 7.08456 0.171985 0.960422 7.08342 0.321501 0.921213 -19.1411 7.46844 -1.83694 -19.4556 15.3413 1.34962 -0.0 0.0 -0.0 2.91319 20.2478 6.62491 -79.7081 -64.6975 11.4311 0.616876 -16.9923 0.0921514 76.3476 -3.42424 -8.39062 -2.89109 14.3171 -12.236 -0.0 0.0 -0.0 12.6195 21.8174 -25.2202 -31.7475 11.5121 -70.1838 0.625367 17.2125 -0.0946486 27.8733 -0.127174 3.52341 3.0416 24.1858 -9.59073 0.0 0.0 0.0 27.1328 13.3849 -6.16705 -68.7219 -3.21164 9.41184 36.2137 16.9285 -4.60655 11.1888 -0.0 -0.0 -0.0 0.0 -0.0 30.785 -0.858404 -1.08577 -19.7737 -0.298262 -3.00474 33.6285 9.12495 4.40975 -1.60976 0.0 0.0 0.0 0.0 0.0 
3272.14 650.849 -408.304 -163.071 -50.443 -170.866 6.99122 0.431229 0.929006 6.99162 0.371243 0.95456 6.99717 0.284355 0.983943 6.99608 0.436175 0.926694 -18.718 6.51294 -2.11612 -18.9516 13.6577 0.635686 -0.0 0.0 -0.0 3.82096 20.8357 7.96707 -81.6812 -63.0726 13.2479 0.586042 -16.1886 0.0833472 80.4729 -3.89317 -8.6362 -2.20348 17.0578 -6.5104 -0.0 0.0 -0.0 12.6243 21.6749 -25.2434 -31.8841 10.5117 -68.0625 0.767717 20.822 -0.141057 28.5175 -0.10979 3.60387 2.75158 24.5177 -7.52281 0.0 0.0 0.0 26.0519 14.8918 -7.0257 -65.9193 -2.8719 9.14379 38.5997 17.5182 -4.84629 9.59424 -0.0 -0.0 -0.0 0.0 -0.0 28.3982 6.80678 -2.35873 -18.1683 -0.312942 -2.75886 33.2226 0.402922 4.24716 9.77477 -0.0 -0.0 0.0 0.0 0.0 
3283.57 654.481 -398.05 -164.37 -51.2492 -171.996 6.6013 0.298444 0.871353 6.60169 0.242395 0.888576 6.60491 0.155696 0.907788 6.60388 0.297104 0.87181 -18.6011 6.58693 -2.35771 -18.8394 13.9308 0.427241 -0.0 0.0 -0.0 3.90587 22.3618 8.09065 -79.2709 -61.9061 16.2126 0.515294 -14.3198 0.0647308 79.0585 -3.73043 -8.55581 -1.47629 17.4705 -1.8768 -0.0 0.0 -0.0 13.0912 22.985 -26.2093 -30.7385 8.90362 -67.0804 0.881636 23.5924 -0.184126 29.1852 -0.0908186 3.68705 2.02884 26.8058 -1.72591 0.0 0.0 0.0 26.6008 17.288 -8.73685 -61.4025 -2.35332 8.67812 41.4763 17.8865 -5.11531 5.39551 -0.0 -0.0 -0.0 0.0 -0.0 27.1081 6.83239 -2.52046 -18.2585 -0.3123 -2.77268 34.2227 -1.71512 4.33254 6.28775 -0.0 -0.0 0.0 0.0 0.0 
3296.73 657.487 -390.622 -165.61 -52.6482 -173.05 6.45543 0.215584 0.825694 6.4558 0.162608 0.837738 6.4577 0.0789824 0.849709 6.45675 0.212182 0.826575 -18.8463 7.33417 -2.50326 -19.1492 15.4385 0.634064 -0.0 0.0 -0.0 4.91728 19.6559 9.60791 -73.6843 -59.9648 25.7868 0.3934 -11.0277 0.0379763 81.8527 -4.05381 -8.71074 -1.64837 24.1785 0.208236 -0.0 0.0 -0.0 12.9305 22.2158 -25.9064 -27.1346 4.53336 -66.6351 0.970112 25.6668 -0.221004 25.2882 -0.187795 3.19878 1.68386 28.855 1.44365 0.0 0.0 0.0 27.1465 18.5319 -8.11248 -54.1524 -1.60272 7.85052 42.1695 21.3536 -5.25929 5.13462 -0.0 -0.0 -0.0 0.0 -0.0 23.4912 7.25128 -1.2999 -16.7842 -0.320063 -2.54662 35.2054 -1.2183 4.43088 12.6671 -0.0 -0.0 0.0 0.0 0.0 
